<svg width="14" height="18" viewBox="0 0 14 18" fill="none" xmlns="http://www.w3.org/2000/svg">
<path d="M12.8334 4.83335H10.3334V4.00002C10.3334 3.11596 9.98218 2.26812 9.35706 1.643C8.73194 1.01788 7.88409 0.666687 7.00004 0.666687C6.11598 0.666687 5.26814 1.01788 4.64302 1.643C4.0179 2.26812 3.66671 3.11596 3.66671 4.00002V4.83335H1.16671C0.945693 4.83335 0.733732 4.92115 0.577452 5.07743C0.421172 5.23371 0.333374 5.44567 0.333374 5.66669V14.8334C0.333374 15.4964 0.596766 16.1323 1.06561 16.6011C1.53445 17.07 2.17033 17.3334 2.83337 17.3334H11.1667C11.8297 17.3334 12.4656 17.07 12.9345 16.6011C13.4033 16.1323 13.6667 15.4964 13.6667 14.8334V5.66669C13.6667 5.44567 13.5789 5.23371 13.4226 5.07743C13.2663 4.92115 13.0544 4.83335 12.8334 4.83335ZM5.33337 4.00002C5.33337 3.55799 5.50897 3.13407 5.82153 2.82151C6.13409 2.50895 6.55801 2.33335 7.00004 2.33335C7.44207 2.33335 7.86599 2.50895 8.17855 2.82151C8.49111 3.13407 8.6667 3.55799 8.6667 4.00002V4.83335H5.33337V4.00002ZM12 14.8334C12 15.0544 11.9122 15.2663 11.756 15.4226C11.5997 15.5789 11.3877 15.6667 11.1667 15.6667H2.83337C2.61236 15.6667 2.4004 15.5789 2.24412 15.4226C2.08784 15.2663 2.00004 15.0544 2.00004 14.8334V6.50002H3.66671V7.33335C3.66671 7.55437 3.7545 7.76633 3.91078 7.92261C4.06706 8.07889 4.27903 8.16669 4.50004 8.16669C4.72105 8.16669 4.93301 8.07889 5.08929 7.92261C5.24557 7.76633 5.33337 7.55437 5.33337 7.33335V6.50002H8.6667V7.33335C8.6667 7.55437 8.7545 7.76633 8.91078 7.92261C9.06706 8.07889 9.27902 8.16669 9.50004 8.16669C9.72105 8.16669 9.93301 8.07889 10.0893 7.92261C10.2456 7.76633 10.3334 7.55437 10.3334 7.33335V6.50002H12V14.8334Z" fill="#111111"/>
</svg>
