<svg width="14" height="18" viewBox="0 0 14 18" fill="none" xmlns="http://www.w3.org/2000/svg">
<path d="M12.8334 4.83317H10.3334V3.99984C10.3334 3.11578 9.98218 2.26794 9.35706 1.64281C8.73194 1.01769 7.88409 0.666504 7.00004 0.666504C6.11598 0.666504 5.26814 1.01769 4.64302 1.64281C4.0179 2.26794 3.66671 3.11578 3.66671 3.99984V4.83317H1.16671C0.945693 4.83317 0.733732 4.92097 0.577452 5.07725C0.421172 5.23353 0.333374 5.44549 0.333374 5.6665V14.8332C0.333374 15.4962 0.596766 16.1321 1.06561 16.6009C1.53445 17.0698 2.17033 17.3332 2.83337 17.3332H11.1667C11.8297 17.3332 12.4656 17.0698 12.9345 16.6009C13.4033 16.1321 13.6667 15.4962 13.6667 14.8332V5.6665C13.6667 5.44549 13.5789 5.23353 13.4226 5.07725C13.2663 4.92097 13.0544 4.83317 12.8334 4.83317ZM5.33337 3.99984C5.33337 3.55781 5.50897 3.13389 5.82153 2.82133C6.13409 2.50876 6.55801 2.33317 7.00004 2.33317C7.44207 2.33317 7.86599 2.50876 8.17855 2.82133C8.49111 3.13389 8.6667 3.55781 8.6667 3.99984V4.83317H5.33337V3.99984ZM12 14.8332C12 15.0542 11.9122 15.2661 11.756 15.4224C11.5997 15.5787 11.3877 15.6665 11.1667 15.6665H2.83337C2.61236 15.6665 2.4004 15.5787 2.24412 15.4224C2.08784 15.2661 2.00004 15.0542 2.00004 14.8332V6.49984H3.66671V7.33317C3.66671 7.55418 3.7545 7.76614 3.91078 7.92242C4.06706 8.07871 4.27903 8.1665 4.50004 8.1665C4.72105 8.1665 4.93301 8.07871 5.08929 7.92242C5.24557 7.76614 5.33337 7.55418 5.33337 7.33317V6.49984H8.6667V7.33317C8.6667 7.55418 8.7545 7.76614 8.91078 7.92242C9.06706 8.07871 9.27902 8.1665 9.50004 8.1665C9.72105 8.1665 9.93301 8.07871 10.0893 7.92242C10.2456 7.76614 10.3334 7.55418 10.3334 7.33317V6.49984H12V14.8332Z" fill="white"/>
</svg>
