<svg width="16.000000" height="16.000000" viewBox="0 0 16 16" fill="none" xmlns="http://www.w3.org/2000/svg" xmlns:xlink="http://www.w3.org/1999/xlink">
	<desc>
			Created with Pixso.
	</desc>
	<defs>
		<clipPath id="clip22_1913">
			<rect id="trash-03" width="16.000000" height="16.000000" fill="white" fill-opacity="0"/>
		</clipPath>
	</defs>
	<rect id="trash-03" width="16.000000" height="16.000000" fill="#FFFFFF" fill-opacity="0"/>
	<g clip-path="url(#clip22_1913)">
		<path id="Icon" d="M6 2L10 2M2 4L14 4M12.667 4L12.1992 11.0129C12.1289 12.065 12.0938 12.5911 11.8662 12.99C11.667 13.3412 11.3652 13.6235 11.001 13.7998C10.5879 14 10.0605 14 9.00586 14L6.99414 14C5.93945 14 5.41211 14 4.99902 13.7998C4.63477 13.6235 4.33301 13.3412 4.13379 12.99C3.90625 12.5911 3.87109 12.065 3.80078 11.0129L3.33301 4M6.66699 7L6.66699 10.3333M9.33301 7L9.33301 10.3333" stroke="#FFFFFF" stroke-opacity="1.000000" stroke-width="1.000000" stroke-linejoin="round"/>
	</g>
</svg>
