<svg xmlns="http://www.w3.org/2000/svg" aria-hidden="true" style="position:absolute;width:0;height:0;overflow:hidden">
    <defs>
        <symbol id="burger" viewBox="0 0 32 32">
            <path stroke-linecap="round" stroke-linejoin="round" stroke-width="2.286"
                d="M22.667 13.333H4M28 8H4M28 18.667H4M22.667 24H4" />
        </symbol>
        <symbol id="arrow-right" viewBox="0 0 43 32">
            <path stroke-linecap="round" stroke-linejoin="round" stroke-width="5.333"
                d="M3.555 16h35.556m0 0L25.778 2.667M39.111 16 25.778 29.333" />
        </symbol>
        <symbol id="lock" viewBox="0 0 32 32">
            <path stroke-linejoin="round" stroke-linecap="round" stroke-miterlimit="4" stroke-width="2.6667"
                d="M23.778 14.444v-4.667c0-4.296-3.482-7.778-7.778-7.778s-7.778 3.482-7.778 7.778v4.667M9.467 30h13.067c2.614 0 3.92 0 4.919-0.509 0.878-0.447 1.592-1.161 2.039-2.039 0.509-0.998 0.509-2.305 0.509-4.919v-0.622c0-2.614 0-3.92-0.509-4.919-0.447-0.878-1.161-1.592-2.039-2.039-0.998-0.509-2.305-0.509-4.919-0.509h-13.067c-2.614 0-3.92 0-4.919 0.509-0.878 0.447-1.592 1.161-2.039 2.039-0.509 0.998-0.509 2.305-0.509 4.919v0.622c0 2.614 0 3.92 0.509 4.919 0.447 0.878 1.161 1.592 2.039 2.039 0.998 0.509 2.305 0.509 4.919 0.509z">
            </path>
        </symbol>
        <symbol id="mail" viewBox="0 0 38 32">
            <path stroke-linecap="round" stroke-linejoin="round" stroke-width="2.909"
                d="M35.03 26.182 23.757 16m-9.697 0L2.787 26.182M1.939 7.515l13.856 9.699c1.122.785 1.683 1.178 2.293 1.33a3.404 3.404 0 0 0 1.642 0c.61-.152 1.171-.545 2.293-1.33l13.856-9.699M10.085 29.576h17.648c2.851 0 4.277 0 5.366-.555a5.09 5.09 0 0 0 2.225-2.225c.555-1.089.555-2.515.555-5.366V10.569c0-2.851 0-4.277-.555-5.366a5.09 5.09 0 0 0-2.225-2.225c-1.089-.555-2.515-.555-5.366-.555H10.085c-2.851 0-4.277 0-5.366.555a5.09 5.09 0 0 0-2.225 2.225c-.555 1.089-.555 2.515-.555 5.366V21.43c0 2.851 0 4.277.555 5.366a5.09 5.09 0 0 0 2.225 2.225c1.089.555 2.515.555 5.366.555z" />
        </symbol>
        <symbol id="trash" viewBox="0 0 32 32">
            <path stroke-linecap="round" stroke-linejoin="round" stroke-width="2"
                d="M11.6 2.8h8.8M2.8 7.2h26.4m-2.933 0-1.029 15.428c-.154 2.315-.232 3.472-.731 4.35a4.397 4.397 0 0 1-1.904 1.781c-.909.44-2.069.44-4.389.44h-4.427c-2.32 0-3.48 0-4.389-.44a4.403 4.403 0 0 1-1.904-1.781c-.5-.878-.577-2.035-.731-4.35L5.734 7.2m7.333 6.6v7.333m5.866-7.333v7.333" />
        </symbol>
        <symbol id="x-close" viewBox="0 0 32 32">
            <path stroke-linecap="round" stroke-linejoin="round" stroke-width="5.333"
                d="M28.444 3.556 3.555 28.445m.001-24.889 24.889 24.889" />
        </symbol>
        <!-- <symbol id="logo" viewBox="0 0 32 32">
            <path  d="M4 0l12.257 12.129 11.743 11.871v-24h-24z">
            </path>
            <path 
                d="M7.343 3.171l8.957 8.871 8.443 8.614h-17.4v-17.486z"></path>
            <path 
                d="M24.8 20.714l-8.957-8.871-8.443-8.614h17.4v17.486z"></path>
            <path d="M10.943 6.771l10.2 10.2h-10.2v-10.2z"></path>
            <path  d="M10.943 6.771l10.2 10.2v-10.2h-10.2z"></path>
        </symbol> -->
        <symbol id="logo" viewBox="0 0 32 32">
            <path fill="#f6f6f6" style="fill: var(--color1, #f6f6f6)" d="M0 0l16.343 16.171 15.657 15.829v-32h-32z">
            </path>
            <path fill="#f6f6f6" style="fill: var(--color1, #f6f6f6)"
                d="M4.457 4.229l11.943 11.829 11.257 11.486h-23.2v-23.314z"></path>
            <path fill="#4f2ee8" style="fill: var(--color2, #4f2ee8)"
                d="M27.733 27.618l-11.943-11.829-11.257-11.486h23.2v23.314z"></path>
            <path fill="#4f2ee8" style="fill: var(--color2, #4f2ee8)" d="M9.257 9.029l13.6 13.6h-13.6v-13.6z"></path>
            <path fill="#f6f6f6" style="fill: var(--color1, #f6f6f6)" d="M9.257 9.029l13.6 13.6v-13.6h-13.6z"></path>
        </symbol> -->
       
  <symbol id="bookshelf" viewBox="0 0 78 14">
    <path d="M9.702 3.73301C9.702 1.663 8.172 0.493005 5.526 0.493005H0V13.363H5.832C8.496 13.363 10.206 12.085 10.206 9.60101C10.206 7.67501 9.054 6.68501 7.704 6.45101V6.41501C8.766 6.05501 9.702 5.31701 9.702 3.73301ZM2.142 5.821V2.31101H5.58C6.858 2.31101 7.56 2.941 7.56 4.07501C7.56 5.20901 6.984 5.821 5.454 5.821H2.142ZM2.142 7.42301H5.904C7.254 7.42301 8.064 8.16101 8.064 9.47501C8.064 10.681 7.506 11.545 5.67 11.545H2.142V7.42301Z"></path>
    <path d="M15.7018 13.633C12.8218 13.633 11.0758 11.635 11.0758 8.77301C11.0758 5.91101 12.8218 3.913 15.7018 3.913C18.5818 3.913 20.3278 5.91101 20.3278 8.77301C20.3278 11.635 18.5818 13.633 15.7018 13.633ZM15.7018 12.085C17.5018 12.085 18.4378 10.663 18.4378 8.77301C18.4378 6.86501 17.5018 5.46101 15.7018 5.46101C13.9018 5.46101 12.9658 6.86501 12.9658 8.77301C12.9658 10.663 13.9018 12.085 15.7018 12.085Z"></path>
    <path d="M25.774 13.633C22.894 13.633 21.148 11.635 21.148 8.77301C21.148 5.91101 22.894 3.913 25.774 3.913C28.654 3.913 30.4 5.91101 30.4 8.77301C30.4 11.635 28.654 13.633 25.774 13.633ZM25.774 12.085C27.574 12.085 28.51 10.663 28.51 8.77301C28.51 6.86501 27.574 5.46101 25.774 5.46101C23.974 5.46101 23.038 6.86501 23.038 8.77301C23.038 10.663 23.974 12.085 25.774 12.085Z"></path>
    <path d="M31.7063 0.493005V13.363H33.5963V10.033L34.8743 8.82701L37.7723 13.363H40.0403L36.1703 7.58501L39.6623 4.165H37.3403L33.5963 7.85501V0.493005H31.7063Z"></path>
    <path d="M44.5964 7.80101C43.2644 7.49501 42.2384 7.42301 42.2384 6.48701C42.2384 5.83901 42.8504 5.40701 43.9844 5.40701C45.4604 5.40701 45.8204 6.14501 45.9464 6.86501H47.7824C47.6564 5.26301 46.4684 3.913 43.9664 3.913C41.6624 3.913 40.3304 5.11901 40.3304 6.63101C40.3304 8.71901 42.3104 9.00701 43.7684 9.34901C45.1184 9.67301 46.2164 9.76301 46.2164 10.915C46.2164 11.491 45.6584 12.139 44.3444 12.139C42.4004 12.139 41.9684 11.293 41.8784 10.303H40.0424C40.1324 12.247 41.4104 13.633 44.3804 13.633C46.6124 13.633 48.1244 12.535 48.1244 10.771C48.1244 8.57501 46.2884 8.19701 44.5964 7.80101Z"></path>
    <path d="M54.3039 3.913C52.7559 3.913 51.8019 4.63301 51.3159 5.35301H51.2799V0.493005H49.3899V13.363H51.2799V7.76501C51.2799 6.39701 52.2699 5.51501 53.6559 5.51501C54.9699 5.51501 55.4919 6.30701 55.4919 7.54901V13.363H57.3999V7.00901C57.3999 4.90301 56.0499 3.913 54.3039 3.913Z" ></path>
    <path d="M63.1962 12.085C61.5222 12.085 60.5322 10.807 60.5322 9.25901H67.5882C67.5882 5.98301 66.1302 3.913 63.1602 3.913C60.3882 3.913 58.6422 5.78501 58.6422 8.77301C58.6422 11.653 60.3882 13.633 63.2502 13.633C65.6082 13.633 66.9762 12.301 67.4442 10.555H65.5542C65.3922 11.113 64.7622 12.085 63.1962 12.085ZM63.1602 5.40701C64.6902 5.40701 65.6982 6.43301 65.6982 7.85501H60.5322C60.5322 6.43301 61.6302 5.40701 63.1602 5.40701Z"></path>
    <path d="M68.92 0.493005V13.363H70.828V0.493005H68.92Z"></path>
    <path d="M77.0013 2.04101V0.493005C76.6233 0.421005 76.2093 0.367004 75.7413 0.367004C74.2293 0.367004 73.4013 1.05101 73.4013 2.99501V4.165H72.0873V5.71301H73.4013V13.363H75.3093V5.71301H77.0013V4.165H75.3093V3.15701C75.3093 2.11301 75.7773 1.98701 77.0013 2.04101Z"></path>
  </symbol>

<symbol id="uil_cart" viewBox="0 0 20 20">
    <path d="M15.8335 5.83335H13.3335V5.00002C13.3335 4.11596 12.9823 3.26812 12.3572 2.643C11.7321 2.01788 10.8842 1.66669 10.0002 1.66669C9.11611 1.66669 8.26826 2.01788 7.64314 2.643C7.01802 3.26812 6.66683 4.11596 6.66683 5.00002V5.83335H4.16683C3.94582 5.83335 3.73385 5.92115 3.57757 6.07743C3.42129 6.23371 3.3335 6.44567 3.3335 6.66669V15.8334C3.3335 16.4964 3.59689 17.1323 4.06573 17.6011C4.53457 18.07 5.17045 18.3334 5.8335 18.3334H14.1668C14.8299 18.3334 15.4658 18.07 15.9346 17.6011C16.4034 17.1323 16.6668 16.4964 16.6668 15.8334V6.66669C16.6668 6.44567 16.579 6.23371 16.4227 6.07743C16.2665 5.92115 16.0545 5.83335 15.8335 5.83335ZM8.33349 5.00002C8.33349 4.55799 8.50909 4.13407 8.82165 3.82151C9.13421 3.50895 9.55813 3.33335 10.0002 3.33335C10.4422 3.33335 10.8661 3.50895 11.1787 3.82151C11.4912 4.13407 11.6668 4.55799 11.6668 5.00002V5.83335H8.33349V5.00002ZM15.0002 15.8334C15.0002 16.0544 14.9124 16.2663 14.7561 16.4226C14.5998 16.5789 14.3878 16.6667 14.1668 16.6667H5.8335C5.61248 16.6667 5.40052 16.5789 5.24424 16.4226C5.08796 16.2663 5.00016 16.0544 5.00016 15.8334V7.50002H6.66683V8.33335C6.66683 8.55437 6.75463 8.76633 6.91091 8.92261C7.06719 9.07889 7.27915 9.16669 7.50016 9.16669C7.72117 9.16669 7.93314 9.07889 8.08942 8.92261C8.2457 8.76633 8.33349 8.55437 8.33349 8.33335V7.50002H11.6668V8.33335C11.6668 8.55437 11.7546 8.76633 11.9109 8.92261C12.0672 9.07889 12.2791 9.16669 12.5002 9.16669C12.7212 9.16669 12.9331 9.07889 13.0894 8.92261C13.2457 8.76633 13.3335 8.55437 13.3335 8.33335V7.50002H15.0002V15.8334Z"></path>
  </symbol>
        <symbol id="arrow-down" viewBox="0 0 60 32">
            <path d="M3.168 3h53.667L32.712 30.27c-.719.812-1.694 1.269-2.71 1.269s-1.991-.456-2.71-1.269L3.169 3z" />
        </symbol>
        <symbol id="arrow-up" viewBox="0 0 55 32">
            <path
                d="M1.091 25.309 25.527.8c.291-.291.606-.496.945-.617.339-.122.703-.183 1.091-.183s.752.061 1.091.183c.339.12.655.326.946.617l24.509 24.509c.679.679 1.018 1.527 1.018 2.545s-.364 1.891-1.091 2.618c-.727.727-1.576 1.091-2.545 1.091s-1.818-.364-2.545-1.091L27.564 9.09 6.182 30.472c-.679.679-1.515 1.018-2.508 1.018-.995 0-1.856-.364-2.583-1.091S0 28.823 0 27.854c0-.97.364-1.818 1.091-2.545z" />
        </symbol>
        <symbol id="user" viewBox="0 0 23 32">
            <path
                d="M.296 30.963a11.26 11.26 0 1 1 22.519 0H.297zm11.26-12.667c-4.666 0-8.444-3.779-8.444-8.444s3.779-8.444 8.444-8.444C16.222 1.408 20 5.187 20 9.852s-3.779 8.444-8.444 8.444z" />
        </symbol>
        <symbol id="opened-book" viewBox="0 0 32 32">
            <path
                d="M31.229 9.921a15.221 15.221 0 0 0-2.138-.91v17.947A14.622 14.622 0 0 0 24 26.033c-2.764 0-5.498.806-8 2.357V10.339c-2.356-1.387-5.076-2.208-8-2.208-2.604 0-5.062.656-7.229 1.79-.48.239-.771.761-.771 1.313v18.021c0 .865.684 1.477 1.455 1.477.233 0 .465-.06.698-.179 1.76-.94 3.738-1.537 5.847-1.537 3.011 0 5.789 1.223 8 2.984 2.211-1.76 4.989-2.984 8-2.984 2.109 0 4.087.597 5.847 1.552.233.119.465.179.698.179.756 0 1.455-.612 1.455-1.477V11.234c0-.552-.291-1.074-.771-1.313zM13.091 26.958c-1.658-.612-3.36-.925-5.091-.925s-3.433.313-5.091.925V12.174a12.672 12.672 0 0 1 10.182.015v14.769zM26.182 2.909l-7.273 7.459V24.54l7.273-6.713V2.909z" />
        </symbol>
        <symbol id="icon-ukr-gerb-svg" viewBox="0 0 20 32">
                <path d="M9.005 30.888c-1.738-1.262-2.991-3.156-3.414-5.351h-5.591v-23.117c2.991 1.443 5.153 4.599 5.388 7.876l0.846 6.493-0.407-0.045c-0.893 0-1.676 0.812-1.676 1.608 0 0.752 0.595 1.383 1.378 1.548l1.018 0.226c1.676-3.051 2.631-6.042 2.631-8.973 0-2.645-0.36-5.291-0.423-7.996 0-1.202 0.486-2.3 1.253-3.156 0.783 0.857 1.253 1.954 1.253 3.156 0 2.705-0.423 5.351-0.423 7.996 0 2.931 0.955 5.922 2.631 8.973l1.018-0.226c0.783-0.165 1.378-0.812 1.378-1.548 0-0.812-0.783-1.608-1.676-1.608l-0.423 0.060 0.846-6.493c0.423-3.277 2.396-6.448 5.388-7.876v23.117h-5.576c-0.423 2.179-1.613 4.148-3.414 5.351-0.423 0.286-0.783 0.631-1.018 1.097-0.219-0.466-0.579-0.812-0.987-1.112zM2.647 17.556c0.235-0.857 0.893-1.608 1.738-2.074l-0.658-5.351c-0.235-1.668-0.955-3.156-2.036-4.374v11.784h0.955v0.015zM5.466 23.929c0-0.812 0.125-1.548 0.298-2.3l-0.783-0.18c-1.143-0.346-2.036-1.203-2.334-2.3h-0.955v4.78h3.774zM9.178 23.929c0-0.977-0.783-1.834-1.801-1.954-0.172 0.631-0.298 1.263-0.298 1.954h2.099zM9.178 25.552h-1.864c0.298 1.263 0.955 2.42 1.864 3.397v-3.397zM11.809 20.547c-0.72-1.262-1.378-2.585-1.801-3.968-0.423 1.383-1.081 2.706-1.801 3.968 0.72 0.165 1.316 0.631 1.801 1.157 0.486-0.526 1.081-0.992 1.801-1.157zM12.952 23.929c0-0.691-0.125-1.323-0.297-1.954-1.018 0.12-1.801 0.977-1.801 1.954h2.099zM12.717 25.552h-1.864v3.397c0.908-0.992 1.566-2.134 1.864-3.397zM18.34 23.929v-4.78h-0.955c-0.298 1.097-1.206 1.954-2.334 2.3l-0.783 0.18c0.172 0.752 0.298 1.488 0.298 2.3h3.774zM18.34 17.556v-11.799c-1.081 1.202-1.864 2.706-2.036 4.374l-0.658 5.351c0.846 0.466 1.504 1.203 1.739 2.074h0.955z"></path>
        </symbol>
        <symbol id="icon-arr-dwn-svg" viewBox="0 0 55 32">
                <path d="M24.724 19.048c0.354 0.357 0.775 0.64 1.24 0.834s0.962 0.293 1.465 0.293c0.503 0 1.001-0.1 1.465-0.293s0.886-0.477 1.24-0.834l17.448-17.486c0.354-0.357 0.776-0.64 1.24-0.834s0.962-0.293 1.465-0.293 1.001 0.1 1.465 0.293c0.464 0.193 0.886 0.477 1.24 0.834 0.709 0.714 1.108 1.679 1.108 2.686s-0.398 1.972-1.108 2.686l-17.486 17.486c-2.143 2.14-5.048 3.342-8.076 3.342s-5.933-1.202-8.076-3.342l-17.486-17.486c-0.704-0.71-1.101-1.667-1.105-2.667-0.003-0.501 0.093-0.998 0.283-1.462s0.469-0.886 0.822-1.242c0.354-0.357 0.775-0.64 1.24-0.834s0.962-0.293 1.465-0.293c0.503 0 1.001 0.1 1.465 0.293s0.886 0.477 1.24 0.834l17.448 17.486z"></path>
        </symbol>
    </defs>
</svg>