<svg width="11.667480" height="5.977661" viewBox="0 0 11.6675 5.97766" fill="none" xmlns="http://www.w3.org/2000/svg" xmlns:xlink="http://www.w3.org/1999/xlink">
	<desc>
			Created with Pixso.
	</desc>
	<defs/>
	<path id="Vector" d="M5.2417 4.07153C5.31934 4.14966 5.41162 4.21167 5.51318 4.25391C5.61475 4.29626 5.72363 4.31799 5.8335 4.31799C5.94336 4.31799 6.05225 4.29626 6.15381 4.25391C6.25537 4.21167 6.34766 4.14966 6.42529 4.07153L10.2417 0.246582C10.3193 0.168457 10.4116 0.106445 10.5132 0.0640869C10.6147 0.0218506 10.7236 0 10.8335 0C10.9434 0 11.0522 0.0218506 11.1538 0.0640869C11.2554 0.106445 11.3477 0.168457 11.4253 0.246582C11.5806 0.40271 11.6675 0.613892 11.6675 0.833984C11.6675 1.0542 11.5806 1.26538 11.4253 1.42151L7.6001 5.24658C7.13135 5.71472 6.49609 5.97766 5.8335 5.97766C5.1709 5.97766 4.53564 5.71472 4.06689 5.24658L0.241699 1.42151C0.0878906 1.26636 0.000976562 1.05676 0 0.838135C-0.000488281 0.728516 0.0205078 0.619751 0.0620117 0.518311C0.103516 0.416748 0.164551 0.324341 0.241699 0.246582C0.319336 0.168457 0.411621 0.106445 0.513184 0.0640869C0.614746 0.0218506 0.723633 0 0.833496 0C0.943359 0 1.05225 0.0218506 1.15381 0.0640869C1.25537 0.106445 1.34766 0.168457 1.42529 0.246582L5.2417 4.07153Z" fill="#4F2EE8" fill-opacity="1.000000" fill-rule="nonzero"/>
</svg>
