<svg width="20.000000" height="32.000000" viewBox="0 0 20 32" fill="none" xmlns="http://www.w3.org/2000/svg" xmlns:xlink="http://www.w3.org/1999/xlink">
	<desc>
			Created with Pixso.
	</desc>
	<defs/>
	<path id="Vector" d="M9.00537 30.8877C7.26709 29.6251 6.01416 27.7313 5.59131 25.5369L0 25.5369L0 2.41992C2.99121 3.86279 5.15283 7.01929 5.3877 10.2959L6.2334 16.7891L5.82617 16.744C4.93359 16.744 4.15039 17.5557 4.15039 18.3523C4.15039 19.1038 4.74561 19.7351 5.52881 19.9004L6.54639 20.1259C8.22217 17.0747 9.17773 14.0836 9.17773 11.1527C9.17773 8.50732 8.81738 5.86194 8.75488 3.15637C8.75488 1.95398 9.24023 0.856689 10.0078 0C10.791 0.856689 11.2607 1.95398 11.2607 3.15637C11.2607 5.86194 10.8379 8.50732 10.8379 11.1527C10.8379 14.0836 11.7935 17.0747 13.4692 20.1259L14.4873 19.9004C15.27 19.7351 15.8652 19.0887 15.8652 18.3523C15.8652 17.5406 15.082 16.744 14.1895 16.744L13.7666 16.8041L14.6123 10.3109C15.0352 7.0343 17.0088 3.86279 20 2.43494L20 25.5519L14.4243 25.5519C14.0015 27.7313 12.811 29.7003 11.0103 30.9028C10.5874 31.1884 10.2271 31.5341 9.99219 32C9.77295 31.5341 9.4126 31.1884 9.00537 30.8877ZM2.64697 17.5557C2.88184 16.699 3.53955 15.9474 4.38525 15.4814L3.72754 10.1306C3.49268 8.46216 2.77197 6.97412 1.69141 5.75671L1.69141 17.5406L2.64697 17.5406L2.64697 17.5557ZM5.46582 23.9286C5.46582 23.1169 5.59131 22.3805 5.76367 21.6289L4.98047 21.4486C3.83691 21.1029 2.94434 20.2461 2.64697 19.1489L1.69141 19.1489L1.69141 23.9286L5.46582 23.9286ZM9.17773 23.9286C9.17773 22.9517 8.39453 22.0948 7.37646 21.9746C7.20459 22.606 7.0791 23.2372 7.0791 23.9286L9.17773 23.9286ZM9.17773 25.5519L7.31396 25.5519C7.61182 26.8145 8.26953 27.9718 9.17773 28.9489L9.17773 25.5519ZM11.8091 20.5468C11.0884 19.2842 10.4307 17.9614 10.0078 16.5786C9.58496 17.9614 8.92725 19.2842 8.20654 20.5468C8.92725 20.712 9.52246 21.178 10.0078 21.7041C10.4932 21.178 11.0884 20.712 11.8091 20.5468ZM12.9521 23.9286C12.9521 23.2372 12.8271 22.606 12.6548 21.9746C11.6367 22.0948 10.8535 22.9517 10.8535 23.9286L12.9521 23.9286ZM12.7173 25.5519L10.8535 25.5519L10.8535 28.9489C11.7617 27.9568 12.4199 26.8145 12.7173 25.5519ZM18.3398 23.9286L18.3398 19.1489L17.3843 19.1489C17.0869 20.2461 16.1787 21.1029 15.0508 21.4486L14.2676 21.6289C14.4399 22.3805 14.5654 23.1169 14.5654 23.9286L18.3398 23.9286ZM18.3398 17.5557L18.3398 5.75671C17.2593 6.95911 16.4761 8.46216 16.3037 10.1306L15.646 15.4814C16.4917 15.9474 17.1494 16.6838 17.3843 17.5557L18.3398 17.5557Z" fill="#FFFFFF" fill-opacity="1.000000" fill-rule="nonzero"/>
</svg>
