<svg width="18.949951" height="10.849976" viewBox="0 0 18.95 10.85"  xmlns="http://www.w3.org/2000/svg" xmlns:xlink="http://www.w3.org/1999/xlink">
	<desc>
			Created with Pixso.
	</desc>
	<defs/>
	<path id="Vector" d="M0.375 8.70001L8.7749 0.275024C8.875 0.174988 8.9834 0.104309 9.09985 0.0629883C9.21655 0.0209961 9.34155 0 9.47485 0C9.6084 0 9.7334 0.0209961 9.84985 0.0629883C9.96655 0.104309 10.075 0.174988 10.175 0.275024L18.5999 8.70001C18.8333 8.93335 18.95 9.22498 18.95 9.57501C18.95 9.92499 18.825 10.225 18.575 10.475C18.325 10.725 18.0332 10.85 17.7 10.85C17.3667 10.85 17.075 10.725 16.825 10.475L9.47485 3.125L2.125 10.475C1.8916 10.7083 1.60425 10.825 1.26294 10.825C0.920898 10.825 0.625 10.7 0.375 10.45C0.125 10.2 0 9.90833 0 9.57501C0 9.24164 0.125 8.95001 0.375 8.70001Z" fill="#FFFFFF" fill-opacity="1.000000" fill-rule="nonzero"/>
</svg>
